<svg xmlns="http://www.w3.org/2000/svg" viewBox="0 0 64 64" role="img" aria-labelledby="title">
  <title id="title">Logo de WhatsApp</title>
  <circle cx="32" cy="32" r="30" fill="#25D366"/>
  <path fill="#ffffff" d="M31.9 13.4c-10.1 0-18.3 8.2-18.3 18.2 0 3.2.9 6.4 2.5 9.1l-2.7 10 10.3-2.7c2.6 1.4 5.4 2.1 8.3 2.1 10.1 0 18.3-8.2 18.3-18.3 0-4.9-1.9-9.5-5.4-12.9-3.5-3.5-8.1-5.5-13-5.5Zm0 33.7c-2.6 0-5.1-.7-7.3-2.1l-.5-.3-6.1 1.6 1.6-5.9-.4-.6c-1.5-2.4-2.3-5.2-2.3-8.1 0-8.4 6.8-15.3 15.2-15.3 4.1 0 7.9 1.6 10.8 4.5s4.5 6.7 4.5 10.8c0 8.5-6.9 15.4-15.5 15.4Zm8.4-11.5c-.5-.2-2.7-1.3-3.1-1.5-.4-.2-.7-.2-1 .2-.3.5-1.2 1.5-1.5 1.8-.3.3-.5.3-1 .1-.5-.2-1.9-.7-3.7-2.3-1.4-1.2-2.3-2.7-2.6-3.2-.3-.5 0-.7.2-1 .2-.2.5-.5.7-.8.2-.3.3-.5.5-.8.2-.3.1-.6 0-.8-.1-.2-1-2.4-1.4-3.3-.4-.9-.7-.8-1-.8h-.9c-.3 0-.8.1-1.2.6-.4.5-1.6 1.6-1.6 3.9s1.7 4.5 1.9 4.8c.2.3 3.3 5.1 8.1 7.1 1.1.5 2 .8 2.7 1 .1 0 2.2.7 3.3.4 1-.2 2.7-1.1 3.1-2.2.4-1.1.4-2 .3-2.2-.2-.4-.5-.5-.9-.7Z"/>
</svg>
